<?xml version="1.0" encoding="UTF-8"?>
<svg id="Capa_1" data-name="Capa 1" xmlns="http://www.w3.org/2000/svg" viewBox="0 0 25 25">
  <defs>
    <style>
      .cls-1 {
        fill: #33544a;
      }
    </style>
  </defs>
  <path class="cls-1" d="M14.6,10.72H5.72c-.28,0-.5.23-.5.5s.23.5.5.5h8.88c.28,0,.5-.23.5-.5s-.23-.5-.5-.5Z"/>
  <path class="cls-1" d="M14.6,13.09H5.72c-.28,0-.5.23-.5.5s.23.5.5.5h8.88c.28,0,.5-.23.5-.5s-.23-.5-.5-.5Z"/>
  <path class="cls-1" d="M14.52,5.88H5.84c-.34,0-.62.28-.62.62v2c0,.34.28.62.62.62h8.68c.34,0,.62-.28.62-.62v-2c0-.34-.28-.62-.62-.62ZM14.28,8.26H6.08v-1.52h8.2v1.52Z"/>
  <path class="cls-1" d="M12.11,17.49c-.28.17-.51.23-.7.19-.09-.02-.18-.09-.23-.16-.02-.03-.04-.08-.03-.13.05-.18-.05-.36-.22-.42-.17-.06-.36.02-.44.18-.06.13-.13.27-.22.34-.05.04-.11.05-.13.04-.02-.01-.06-.12.01-.44.03-.13,0-.26-.1-.34-.09-.08-.22-.11-.34-.08-.11.02-.55.03-1.03.03.06-.3.11-.6.14-.9.02-.19-.11-.37-.31-.39-.19-.02-.37.11-.39.31-.04.33-.1.66-.16.99-.32,0-.59,0-.72-.02-.44-.02-.87-.03-1.29.12-.31.11-.55.34-.67.63-.12.3-.11.62.04.93.24.48.74.81,1.14.92.13.04.27.06.41.06.38,0,.74-.14,1-.4.26-.26.37-.6.46-.89.06-.21.12-.43.18-.65.31,0,.62,0,.88-.01,0,.29.09.56.36.73.28.17.65.14.93-.09.15.16.35.28.56.32.37.08.78-.02,1.21-.28.17-.1.22-.32.12-.48-.1-.17-.32-.22-.48-.12ZM7.68,17.86c-.07.22-.15.46-.29.6-.17.17-.46.23-.72.16-.28-.08-.58-.31-.7-.55-.06-.12-.07-.24-.02-.35.04-.11.14-.19.26-.24.2-.07.42-.09.66-.09.11,0,.23,0,.35.01,0,0,.25,0,.59.01-.04.15-.08.3-.13.45Z"/>
  <path class="cls-1" d="M24.17,3.82c-.08-.12-.14-.23-.17-.31-.03-.09-.04-.23-.05-.38-.02-.29-.05-.65-.27-.96-.22-.31-.56-.45-.83-.56-.13-.05-.26-.1-.34-.16-.08-.05-.16-.16-.25-.27-.19-.23-.42-.51-.79-.63-.36-.11-.71-.03-.99.04-.29.07-.48.07-.77,0-.23-.06-.51-.1-.8-.06H1.75C1.05.54.48,1.11.48,1.81v21.42c0,.7.57,1.27,1.27,1.27h16.86c.7,0,1.27-.57,1.27-1.27v-11.06l.21-.08,1.51.58c.1.04.2.05.3.05.17,0,.33-.05.47-.15.22-.15.36-.41.36-.68v-3.91s.08-.04.13-.06c.27-.11.61-.25.83-.55.22-.31.25-.67.27-.96.01-.15.02-.28.05-.38.03-.08.1-.2.17-.31.16-.25.35-.56.35-.95s-.2-.71-.35-.96ZM18.85,23.23c0,.13-.11.24-.24.24H1.75c-.13,0-.24-.11-.24-.24V1.81c0-.13.11-.24.24-.24h15.68s-.05.03-.09.04c-.27.11-.61.25-.83.56-.22.31-.25.67-.27.96-.01.15-.02.28-.05.38-.02.07-.08.16-.14.25-.08-.13-.15-.28-.15-.45,0-.37-.3-.67-.67-.67H5.13c-.37,0-.67.3-.67.67,0,.52-.42.94-.98.94h0c-.18-.02-.37.06-.5.18l-.21.27v15.44l.05.34.16.15c.13.13.3.21.55.18.52,0,.94.42.94.94,0,.37.3.67.67.67h10.09c.37,0,.67-.3.67-.67,0-.52.42-.94.98-.94h0c.21,0,.37-.06.5-.18l.21-.27v-8.03c.06.1.13.19.23.25.22.15.51.19.76.09l.27-.1v10.67ZM15.68,4.87c.03.34.19.63.33.86.08.12.14.23.17.31.03.09.04.23.05.38.02.29.05.65.27.96.02.02.04.03.06.05v12.35c-.84.12-1.51.76-1.67,1.59H5.46c-.15-.8-.79-1.44-1.67-1.58V5.25c.84-.12,1.51-.76,1.67-1.59h9.44c.09.5.38.92.78,1.21ZM21.68,11.6l-1.3-.5c-.19-.07-.4-.07-.59,0l-1.3.5v-2.74c.08.05.14.1.23.13.13.04.25.06.37.06.22,0,.43-.05.61-.1.29-.07.48-.07.77,0,.28.07.63.16.99.04.09-.03.15-.09.23-.13v2.74ZM23.29,5.18c-.1.16-.21.34-.28.55-.07.21-.09.43-.1.62-.01.17-.03.36-.08.43-.05.07-.23.14-.38.21-.18.07-.38.15-.56.28-.18.13-.32.29-.44.44-.11.13-.23.28-.32.31-.07.03-.27-.02-.42-.06-.38-.09-.88-.09-1.26,0-.15.04-.33.09-.42.06-.09-.03-.21-.18-.32-.31-.12-.15-.26-.31-.44-.44-.18-.13-.38-.21-.56-.29-.16-.06-.34-.13-.39-.21-.05-.07-.06-.27-.08-.43-.01-.19-.03-.41-.1-.62-.07-.21-.18-.38-.28-.54-.09-.15-.2-.31-.2-.41s.1-.26.2-.41c.1-.16.21-.34.28-.54.07-.21.09-.43.1-.62.01-.16.03-.36.08-.43.05-.07.23-.14.39-.21.18-.07.38-.15.56-.28.18-.13.32-.29.44-.44.11-.13.23-.28.32-.31.01,0,.03,0,.05,0,.09,0,.24.04.37.07.38.09.88.09,1.26,0,.15-.04.34-.08.42-.06.09.03.21.18.32.31.12.15.26.31.44.44.18.13.38.21.56.28.16.06.34.13.39.21.05.07.06.27.08.43.01.19.03.41.1.62.07.21.18.39.28.54.09.15.2.31.2.41s-.1.26-.2.41Z"/>
  <path class="cls-1" d="M20.09,2.42c-1.3,0-2.35,1.05-2.35,2.35s1.05,2.35,2.35,2.35,2.35-1.05,2.35-2.35-1.05-2.35-2.35-2.35ZM20.09,6.26c-.82,0-1.49-.67-1.49-1.49s.67-1.49,1.49-1.49,1.49.67,1.49,1.49-.67,1.49-1.49,1.49Z"/>
</svg>