<?xml version="1.0" encoding="UTF-8"?>
<svg id="Capa_1" data-name="Capa 1" xmlns="http://www.w3.org/2000/svg" viewBox="0 0 25 25">
  <defs>
    <style>
      .cls-1 {
        font-family: Roboto-Medium, Roboto;
        font-size: 12px;
        font-weight: 500;
      }

      .cls-1, .cls-2 {
        fill: #33544a;
      }

      .cls-3 {
        letter-spacing: -.01em;
      }

      .cls-4 {
        letter-spacing: 0em;
      }
    </style>
  </defs>
  <text class="cls-1" transform="translate(-8.89 34.76)"><tspan class="cls-4" x="0" y="0">A</tspan><tspan x="7.85" y="0">mpa</tspan><tspan class="cls-3" x="31.52" y="0">r</tspan><tspan x="35.61" y="0">o</tspan><tspan x="-2.13" y="13">Recibido</tspan></text>
  <path class="cls-2" d="M25,2.6v-.17c0-1.05-.86-1.91-1.91-1.91-.51,0-.99.2-1.35.56-.19.19-.19.51,0,.71.19.19.51.19.71,0,.17-.17.4-.27.64-.27.5,0,.91.41.91.91v.17c0,.5-.41.91-.91.91h-6.58v-.5s-.01-.05-.01-.08c.58-.2,1.01-.76,1.01-1.41,0-.82-.67-1.5-1.5-1.5s-1.5.67-1.5,1.5c0,.65.43,1.21,1.01,1.41,0,.03-.01.05-.01.08v.5h-6.58c-.5,0-.91-.41-.91-.91v-.17c0-.5.41-.91.91-.91.24,0,.47.09.64.27.19.19.51.19.71,0,.19-.2.19-.51,0-.71-.36-.36-.84-.56-1.35-.56-1.05,0-1.91.86-1.91,1.91v.17c0,1.05.86,1.91,1.91,1.91h1.65l-1.36,2.05c-.4.13-.7.5-.7.95,0,1.65,1.34,3,3,3s3-1.34,3-3c0-.44-.29-.82-.7-.95l-1.36-2.05h3.06v7.07c-.86.22-1.5,1-1.5,1.93v1.66l-6.04-2c-.78-.25-1.63-.12-2.29.37l-1.58,1.19-3.68,2.75c-.41.3-.52.87-.27,1.31l3.32,5.71c.2.35.59.46.91.46.12,0,.24-.01.33-.04.86-.25,2.9-1.5,3.13-1.64h0s.02,0,.02,0l1.02-.69c.41-.28.91-.39,1.41-.32l4.58.71c.77.12,1.55-.07,2.19-.51l7.21-5c.45-.33.72-.86.72-1.42,0-.26-.06-.52-.18-.77-.41-.83-1.43-1.19-2.27-.79l-4.54,2.14v-3.11c0-.93-.64-1.7-1.5-1.93v-7.07h3.06l-1.36,2.05c-.4.13-.7.5-.7.95,0,1.65,1.34,3,3,3s3-1.34,3-3c0-.44-.29-.82-.7-.95l-1.36-2.05h1.65c1.05,0,1.91-.86,1.91-1.91ZM11.5,9.52c-1.1,0-2-.89-2-2h4c0,1.1-.89,2-2,2ZM12.57,6.52h-2.13l1.06-1.6,1.06,1.6ZM15.5,1.52c0-.27.22-.5.5-.5s.5.22.5.5-.22.5-.5.5-.5-.22-.5-.5ZM4.42,23.98s-.08,0-.12,0l-3.3-5.67h0s3.16-2.38,3.16-2.38l2.77,6.74c-.74.44-2,1.16-2.52,1.31ZM22.97,15.39c.35-.17.77-.01.95.33.06.11.08.22.08.33,0,.24-.11.46-.3.6l-7.21,5c-.42.3-.96.42-1.46.34l-4.58-.71c-.75-.11-1.5.06-2.12.47l-.51.34-2.8-6.8,1.27-.95c.39-.29.9-.38,1.37-.22l7.47,2.48c.25.08.45.26.56.51s.12.52.01.77c-.19.47-.72.7-1.19.53l-3.83-1.38c-.25-.09-.54.04-.64.3-.1.26.04.54.3.64l3.83,1.38c.21.08.44.11.66.11.71,0,1.38-.4,1.72-1.06,0,0,6.42-3.02,6.42-3.02ZM17,13.52v3.58l-.26.12c-.02-.18-.07-.35-.15-.52-.22-.49-.65-.87-1.16-1.03l-.43-.15v-2c0-.55.45-1,1-1s1,.45,1,1ZM20.5,9.52c-1.1,0-2-.89-2-2h4c0,1.1-.89,2-2,2ZM21.57,6.52h-2.13l1.06-1.6,1.06,1.6Z"/>
</svg>