<?xml version="1.0" encoding="UTF-8"?>
<svg id="Capa_1" data-name="Capa 1" xmlns="http://www.w3.org/2000/svg" viewBox="0 0 25 25">
  <defs>
    <style>
      .cls-1 {
        fill: #33544a;
      }
    </style>
  </defs>
  <path class="cls-1" d="M20.85,3.53c-5.34-.28-7.43-2.6-7.45-2.63-.22-.26-.55-.41-.89-.41,0,0,0,0-.01,0-.34,0-.67.15-.89.41-.06.06-2.16,2.35-7.45,2.62-.63.03-1.12.55-1.12,1.18v6.31c0,5.91,3.54,11.17,9.03,13.39.14.06.29.09.44.09.18,0,.36-.04.53-.12,5.44-2.24,8.94-7.47,8.94-13.36v-6.3c0-.63-.49-1.15-1.12-1.18ZM12.5,23.31h0c-2.3-.93-4.23-2.46-5.65-4.37.89-2.06,3.2-3.48,5.78-3.48s4.72,1.3,5.68,3.27c-1.43,2-3.42,3.62-5.81,4.58ZM9.89,11.42c0-1.48,1.2-2.69,2.69-2.69s2.69,1.2,2.69,2.69-1.2,2.69-2.69,2.69-2.69-1.2-2.69-2.69ZM20.79,11.02c0,2.36-.62,4.61-1.74,6.57-.92-1.45-2.43-2.53-4.21-3.02.98-.71,1.62-1.85,1.62-3.15,0-2.14-1.74-3.89-3.89-3.89s-3.89,1.74-3.89,3.89c0,1.31.65,2.46,1.64,3.16-1.83.52-3.36,1.67-4.26,3.21-1.19-2.01-1.86-4.33-1.86-6.77v-6.31c6.01-.32,8.29-3.04,8.29-3.04,0,0,2.28,2.72,8.29,3.04v6.3Z"/>
</svg>