<?xml version="1.0" encoding="UTF-8"?>
<svg id="Capa_1" data-name="Capa 1" xmlns="http://www.w3.org/2000/svg" viewBox="0 0 25 25">
  <defs>
    <style>
      .cls-1 {
        fill: #33544a;
      }
    </style>
  </defs>
  <path class="cls-1" d="M16.92,11.23h-3.18v-3.18c0-.66-.53-1.19-1.19-1.19s-1.19.53-1.19,1.19v3.18h-3.18c-.66,0-1.19.53-1.19,1.19s.53,1.19,1.19,1.19h3.18v3.18c0,.66.53,1.19,1.19,1.19s1.19-.53,1.19-1.19v-3.18h3.18c.66,0,1.19-.53,1.19-1.19s-.53-1.19-1.19-1.19Z"/>
  <path class="cls-1" d="M12.5,24.5C5.88,24.5.5,19.12.5,12.5S5.88.5,12.5.5s12,5.38,12,12-5.38,12-12,12ZM12.5,1.86C6.63,1.86,1.86,6.63,1.86,12.5s4.77,10.64,10.64,10.64,10.64-4.77,10.64-10.64S18.37,1.86,12.5,1.86Z"/>
</svg>