<?xml version="1.0" encoding="UTF-8"?>
<svg id="Capa_1" data-name="Capa 1" xmlns="http://www.w3.org/2000/svg" viewBox="0 0 14 14">
  <defs>
    <style>
      .cls-1 {
        fill: #33544a;
      }
    </style>
  </defs>
  <path d="M12.2,10.74s0,0,0,0V.6c0-.33-.27-.6-.6-.6H3.49c-1.2,0-1.69.94-1.77,1.44,0,.03,0,.07,0,.1v10.25s0,0,0,0c0,0,0,0,0,0,0,.86.73,1.31,1.16,1.44.06.02.11.03.17.03h1.43v.68l.88-.66.9.68v-.7h5.35c.32,0,.6-.17.6-.63-.92,0-1.09-.55-1.09-.96s.16-.94,1.09-.94ZM11.6,10.16H3.79V.6s0,0,0,0h7.81v9.56ZM2.31,1.55s.14-.75.88-.91v9.54c-.21.02-.4.07-.58.14-.04.02-.06.03-.09.04-.05.03-.1.05-.15.08-.05.03-.07.06-.07.06V1.55ZM5.65,12.01v.66h-.14l-.16-.12-.16.12h-.11v-.66h.58ZM10.94,12.67h-4.69v-.66h3.36c.16,0,.29-.13.29-.29s-.13-.29-.29-.29H3.09c-.16,0-.29.13-.29.29s.13.29.29.29h1.38v.66h-1.43s-.73-.22-.73-.86c0-.47.22-.81.61-.96.02,0,.05-.01.07-.02.11-.03.23-.05.36-.06.02,0,.04,0,.07,0h7.52s-.42.2-.42.9.42,1,.42,1Z"/>
  <path d="M10.22,8.56h-5.04c-.16,0-.29.13-.29.29s.13.29.29.29h5.04c.16,0,.29-.13.29-.29s-.13-.29-.29-.29Z"/>
  <path d="M10.22,7.45h-5.04c-.16,0-.29.13-.29.29s.13.29.29.29h5.04c.16,0,.29-.13.29-.29s-.13-.29-.29-.29Z"/>
  <path d="M5.36,3.18l-.69,1.16s0,.05-.01.07c0,.02-.02.03-.02.05,0,.01,0,.03,0,.04,0,.01,0,.02,0,.04.05.6.59,1.08,1.26,1.08s1.23-.49,1.27-1.09c0,0,0,0,0,0,0,0,0-.01,0-.02,0-.01,0-.03,0-.04,0-.02-.02-.04-.03-.06,0-.02,0-.04,0-.07l-.88-1.48c.62-.22,1.03.05,1.17.18v3.23c0,.14.11.25.25.25s.25-.11.25-.25v-3.23c.14-.13.55-.4,1.17-.18l-.88,1.48s0,.05-.01.07c0,.02-.02.03-.02.05,0,.01,0,.03,0,.04,0,.01,0,.02,0,.04.05.6.59,1.08,1.26,1.08s1.25-.5,1.27-1.11c0-.01,0-.03,0-.04,0-.03-.02-.05-.03-.07,0-.02,0-.04,0-.05l-.69-1.16c.51,0,.95-.33,1.16-.57.09-.1.08-.26-.03-.35-.1-.09-.26-.08-.35.02-.02.03-.56.64-1.12.31-.03-.02-.06-.03-.09-.04,0,0,0,0,0,0,0,0,0,0-.01,0-.68-.36-1.25-.28-1.64-.09v-.55c0-.14-.11-.25-.25-.25s-.25.11-.25.25v.55c-.39-.19-.97-.27-1.64.09,0,0,0,0-.01,0,0,0,0,0,0,0-.03.02-.06.03-.09.04-.55.33-1.1-.28-1.12-.31-.09-.1-.25-.11-.35-.02-.1.09-.12.25-.03.35.21.24.65.57,1.16.57ZM9.49,5.13c-.32,0-.6-.17-.72-.41h1.43c-.12.24-.39.41-.72.41ZM10.07,4.22h-1.17l.59-.99.59.99ZM5.92,5.13c-.32,0-.6-.17-.72-.41h1.43c-.12.24-.39.41-.72.41ZM5.92,3.23l.59.99h-1.18l.59-.99Z"/>
</svg>