<?xml version="1.0" encoding="UTF-8"?>
<svg id="Capa_1" data-name="Capa 1" xmlns="http://www.w3.org/2000/svg" viewBox="0 0 25 25">
  <defs>
    <style>
      .cls-1 {
        font-family: Roboto-Medium, Roboto;
        font-size: 12px;
        font-weight: 500;
      }

      .cls-1, .cls-2 {
        fill: #33544a;
      }

      .cls-3 {
        letter-spacing: -.01em;
      }

      .cls-4 {
        letter-spacing: .02em;
      }
    </style>
  </defs>
  <text class="cls-1" transform="translate(-8.24 34.75)"><tspan x="0" y="0">Exho</tspan><tspan class="cls-4" x="26.29" y="0">r</tspan><tspan class="cls-3" x="30.83" y="0">t</tspan><tspan x="34.68" y="0">o</tspan><tspan x="-.51" y="13">Enviado</tspan></text>
  <g>
    <path class="cls-2" d="M24.43.58H6.08c-.29,0-.53.24-.53.53v1.99H1.84C.84,3.1.04,3.83.04,4.72v8.37c0,.9.81,1.63,1.8,1.63h3.71v9.18c0,.29.24.53.53.53h18.35c.29,0,.53-.24.53-.53V1.11c0-.29-.24-.53-.53-.53ZM1.1,13.09V4.72c0-.31.34-.56.74-.56h14.42c.4,0,.74.26.74.56v8.37c0,.31-.34.56-.74.56h-2.13c-.29,0-.53.24-.53.53v1.38l-2.08-1.78c-.1-.08-.22-.13-.34-.13H1.84c-.4,0-.74-.26-.74-.56ZM23.9,23.36H6.61v-8.65h4.36l2.81,2.4c.1.08.22.13.34.13.08,0,.15-.02.22-.05.19-.09.31-.27.31-.48v-2h1.6c.99,0,1.8-.73,1.8-1.63V4.72c0-.9-.81-1.63-1.8-1.63H6.61v-1.46h17.29v21.73Z"/>
    <path class="cls-2" d="M11.88,11.71c1.23,0,2.23-.87,2.27-1.95,0-.02,0-.05,0-.08,0-.02,0-.03-.01-.05,0-.01,0-.02,0-.04,0-.05-.02-.09-.05-.13,0,0,0,0,0-.01l-1.23-2.02c.9,0,1.7-.58,2.07-1,.16-.18.14-.46-.04-.62-.18-.16-.46-.15-.62.04-.04.05-1.02,1.11-2.02.54-.05-.03-.1-.04-.14-.07,0,0,0,0-.01-.01-.02,0-.03-.01-.05-.02-1.2-.61-2.23-.47-2.92-.14v-.96c0-.24-.2-.44-.44-.44s-.44.2-.44.44v.96c-.69-.34-1.71-.48-2.92.14-.02,0-.03,0-.05.02,0,0,0,0-.02.01-.05.03-.09.04-.14.07-1,.58-1.98-.49-2.02-.54-.16-.18-.44-.2-.62-.04-.18.16-.2.44-.04.62.37.42,1.16.99,2.07,1l-1.23,2.02s0,.03-.02.04c0,.01,0,.03-.01.04-.02.04-.03.09-.03.13,0,0,0,0,0,.01,0,.02,0,.03,0,.04,0,.02,0,.05,0,.07.07,1.06,1.05,1.91,2.26,1.91s2.23-.87,2.27-1.95c0-.02,0-.05,0-.08,0-.01,0-.02,0-.03,0-.03,0-.06-.02-.09,0-.03-.02-.06-.03-.08,0,0,0-.02-.01-.03l-1.56-2.57c1.12-.39,1.84.09,2.1.31v5.64c0,.24.2.44.44.44s.44-.2.44-.44v-5.64c.26-.22.99-.7,2.1-.31l-1.56,2.57s0,.03-.02.05c0,.01,0,.02-.01.04-.02.05-.03.09-.03.14,0,0,0,0,0,.01,0,.01,0,.03,0,.04,0,.03,0,.05,0,.07.07,1.06,1.05,1.91,2.26,1.91ZM5.5,7.51l1.05,1.73h-2.1l1.05-1.73ZM5.49,10.83c-.58,0-1.07-.29-1.28-.7h2.57c-.21.41-.71.7-1.28.7ZM11.88,10.83c-.58,0-1.07-.29-1.28-.7h2.57c-.21.41-.71.7-1.28.7ZM10.83,9.24l1.05-1.73,1.05,1.73h-2.1Z"/>
    <path class="cls-2" d="M22.35,15.87h-5.27c-.29,0-.53.24-.53.53s.24.53.53.53h5.27c.29,0,.53-.24.53-.53s-.24-.53-.53-.53Z"/>
    <path class="cls-2" d="M19.5,14.07h2.85c.29,0,.53-.24.53-.53s-.24-.53-.53-.53h-2.85c-.29,0-.53.24-.53.53s.24.53.53.53Z"/>
    <path class="cls-2" d="M19.5,11.21h2.85c.29,0,.53-.24.53-.53s-.24-.53-.53-.53h-2.85c-.29,0-.53.24-.53.53s.24.53.53.53Z"/>
    <path class="cls-2" d="M19.5,8.34h2.85c.29,0,.53-.24.53-.53s-.24-.53-.53-.53h-2.85c-.29,0-.53.24-.53.53s.24.53.53.53Z"/>
    <path class="cls-2" d="M19.5,5.48h2.85c.29,0,.53-.24.53-.53s-.24-.53-.53-.53h-2.85c-.29,0-.53.24-.53.53s.24.53.53.53Z"/>
    <path class="cls-2" d="M22.25,18.73h-13.99c-.29,0-.53.24-.53.53s.24.53.53.53h13.99c.29,0,.53-.24.53-.53s-.24-.53-.53-.53Z"/>
    <path class="cls-2" d="M22.25,21.29h-13.99c-.29,0-.53.24-.53.53s.24.53.53.53h13.99c.29,0,.53-.24.53-.53s-.24-.53-.53-.53Z"/>
  </g>
</svg>