<?xml version="1.0" encoding="UTF-8"?>
<svg id="Capa_1" data-name="Capa 1" xmlns="http://www.w3.org/2000/svg" viewBox="0 0 25 25">
  <defs>
    <style>
      .cls-1 {
        font-family: Roboto-Medium, Roboto;
        font-size: 12px;
        font-weight: 500;
      }

      .cls-1, .cls-2 {
        fill: #33544a;
      }

      .cls-3 {
        letter-spacing: -.01em;
      }

      .cls-4 {
        letter-spacing: .02em;
      }
    </style>
  </defs>
  <text class="cls-1" transform="translate(-8.24 34.76)"><tspan x="0" y="0">Exho</tspan><tspan class="cls-4" x="26.29" y="0">r</tspan><tspan class="cls-3" x="30.83" y="0">t</tspan><tspan x="34.68" y="0">o</tspan><tspan x="-2.59" y="13">Recibido</tspan></text>
  <g>
    <g>
      <path class="cls-2" d="M12.5,3.23s1.1,1.24,3.99,1.39v2.88c0,2.47-1.58,4.69-3.99,5.62h0c-2.41-.93-3.99-3.15-3.99-5.62v-2.88c2.89-.14,3.99-1.39,3.99-1.39M12.51,2.32s-.01,0-.02,0c-.25,0-.5.11-.67.29-.05.05-.97.97-3.36,1.09-.49.02-.87.43-.87.92v2.88c0,2.86,1.8,5.41,4.57,6.48.11.04.22.06.33.06.13,0,.26-.03.38-.08,2.75-1.08,4.52-3.61,4.52-6.45v-2.88c0-.49-.38-.89-.87-.92-2.4-.12-3.32-1.05-3.36-1.09-.17-.18-.42-.29-.67-.29h0Z"/>
      <path class="cls-2" d="M12.27,10.14h-.92v.44h2.3v-.44h-.92v-3.49h1.18l-.72,1.03v.72c0,.24.21.44.46.44h1.38c.25,0,.46-.2.46-.44v-.72l-1.03-1.46h-1.73v-.44h-.46v.44h-1.73l-1.03,1.46v.72c0,.24.21.44.46.44h1.38c.25,0,.46-.2.46-.44v-.72l-.72-1.03h1.18v3.49ZM13.65,8.39v-.44h1.38v.44h-1.38ZM14.83,7.52h-.98l.49-.7.49.7ZM9.97,8.39v-.44h1.38v.44h-1.38ZM11.15,7.52h-.98l.49-.7.49.7Z"/>
    </g>
    <path class="cls-2" d="M21.73,1.1c.14,0,.26.11.26.25v22.3c0,.14-.12.25-.26.25H3.27c-.14,0-.26-.11-.26-.25V1.35c0-.14.12-.25.26-.25h18.47M21.73,0H3.27C2.51,0,1.9.6,1.9,1.35v22.3c0,.74.61,1.35,1.36,1.35h18.47c.75,0,1.36-.61,1.36-1.35V1.35C23.1.6,22.49,0,21.73,0h0Z"/>
    <g>
      <path class="cls-2" d="M18.95,16.89H6.05c-.3,0-.55-.24-.55-.53s.25-.53.55-.53h12.91c.3,0,.55.24.55.53s-.25.53-.55.53Z"/>
      <path class="cls-2" d="M18.95,19.36H6.05c-.3,0-.55-.24-.55-.53s.25-.53.55-.53h12.91c.3,0,.55.24.55.53s-.25.53-.55.53Z"/>
      <path class="cls-2" d="M18.95,21.83H6.05c-.3,0-.55-.24-.55-.53s.25-.53.55-.53h12.91c.3,0,.55.24.55.53s-.25.53-.55.53Z"/>
    </g>
  </g>
</svg>