<?xml version="1.0" encoding="UTF-8"?>
<svg id="Capa_1" data-name="Capa 1" xmlns="http://www.w3.org/2000/svg" viewBox="0 0 25 25">
  <defs>
    <style>
      .cls-1 {
        fill: #33544a;
      }
    </style>
  </defs>
  <g>
    <path class="cls-1" d="M16.92,15.68h-8.28c-.28,0-.5-.22-.5-.5s.22-.5.5-.5h8.28c.28,0,.5.22.5.5s-.22.5-.5.5Z"/>
    <circle class="cls-1" cx="6.28" cy="15.18" r=".49"/>
  </g>
  <g>
    <path class="cls-1" d="M16.92,17.91h-8.28c-.28,0-.5-.22-.5-.5s.22-.5.5-.5h8.28c.28,0,.5.22.5.5s-.22.5-.5.5Z"/>
    <circle class="cls-1" cx="6.28" cy="17.41" r=".49"/>
  </g>
  <g>
    <path class="cls-1" d="M16.92,20.14h-8.28c-.28,0-.5-.22-.5-.5s.22-.5.5-.5h8.28c.28,0,.5.22.5.5s-.22.5-.5.5Z"/>
    <circle class="cls-1" cx="6.28" cy="19.63" r=".49"/>
  </g>
  <path class="cls-1" d="M11.48,12.07h-1.53v.77h3.84v-.77h-1.53v-6.14h1.97l-1.2,1.8v1.27c0,.42.34.77.77.77h2.3c.42,0,.77-.34.77-.77v-1.27l-1.71-2.57h-2.89v-.77h-.77v.77h-2.89l-1.71,2.57v1.27c0,.42.35.77.77.77h2.3c.42,0,.76-.34.76-.77v-1.27l-1.2-1.8h1.97v6.14ZM13.79,9v-.77h2.3v.77h-2.3ZM15.76,7.47h-1.64l.82-1.23.82,1.23ZM7.65,9v-.77h2.3v.77h-2.3ZM9.62,7.47h-1.64l.82-1.23.82,1.23Z"/>
  <path class="cls-1" d="M20.56,3.68h-.49v-.49c0-.68-.55-1.23-1.23-1.23H7.86c-.07-.62-.49-1.4-1.57-1.4s-1.5.86-1.61,1.4h-.24c-.68,0-1.23.55-1.23,1.23v18.3c0,.68.55,1.23,1.23,1.23h.49s0,0,0,0v.49c0,.68.55,1.23,1.23,1.23h14.4c.68,0,1.23-.55,1.23-1.23V4.91c0-.68-.55-1.23-1.23-1.23ZM6.29,1.42c.52,0,.68.33.72.54h-1.45c.09-.23.28-.54.73-.54ZM4.44,21.69c-.11,0-.2-.09-.2-.2V3.19c0-.11.09-.2.2-.2h2.59v1.1c0,.08-.11.33-.31.33-.22,0-.42-.06-.42-.51,0-.24-.19-.43-.43-.43s-.43.19-.43.43c0,.83.5,1.36,1.27,1.36.68,0,1.16-.62,1.16-1.18v-1.1h10.96c.11,0,.2.09.2.2v1.5s0,0,0,.01v4.52s0,12.26,0,12.26c0,.05-.02.1-.06.13-.04.03-.08.06-.14.06H6.74s-2.3.01-2.3.01ZM20.76,23.2c0,.11-.09.2-.2.2H6.16c-.11,0-.2-.09-.2-.2v-.49h.79s12.1,0,12.1,0c.34,0,.65-.14.87-.37.22-.22.36-.53.36-.87v-12.39s0-4.39,0-4.39h.49c.11,0,.2.09.2.2v18.3Z"/>
</svg>