<?xml version="1.0" encoding="UTF-8"?>
<svg id="Capa_1" data-name="Capa 1" xmlns="http://www.w3.org/2000/svg" viewBox="0 0 25 25">
  <defs>
    <style>
      .cls-1 {
        fill: #33544a;
      }
    </style>
  </defs>
  <path class="cls-1" d="M23,12v-1c.55,0,1-.45,1-1v-1c.55,0,1-.45,1-1.01v-1.2c0-.38-.21-.73-.55-.9L12.95.11c-.28-.14-.62-.14-.9,0L.55,5.9C.21,6.07,0,6.42,0,6.8v1.2C0,8.55.45,9,1,9v1c0,.55.45,1,1,1v1c0,.55.45,1,1,1v5c-.55,0-1,.45-1,1v1c-.55,0-1,.45-1,1v1s0,.06.01.09C.43,22.3,0,22.84,0,23.5,0,24.32.68,25,1.5,25h22c.82,0,1.5-.68,1.5-1.5,0-.66-.43-1.21-1.01-1.41,0-.03.01-.06.01-.09v-1c0-.55-.45-1-1-1v-1c0-.55-.45-1-1-1v-5c.55,0,1-.45,1-1ZM1,8v-1.21L12.5,1l11.5,5.79v1.21H1ZM2,10v-1h21v1H2ZM22,19v1h-3v-1h3ZM20,18v-5h1v5h-1ZM19,18c-.55,0-1,.45-1,1v1h-3.01v-1c0-.55-.45-1-1-1v-5c.55,0,1-.45,1-1v-1h3.01v1c0,.55.45,1,1,1v5ZM6,18v-5c.55,0,1-.45,1-1v-1h2.96s.02,0,.04,0v1c0,.55.45,1,1,1v5c-.55,0-1,.45-1,1v1h-2.99v-1c0-.55-.45-1-1-1ZM3,12v-1h3v1h-3ZM5,13v5h-1v-5h1ZM13.99,20h-3v-1h3v1ZM11.99,18v-5h1v5h-1ZM10.99,12v-1h3v1h-3ZM3,19h3v1h-3v-1ZM23.5,23c.27,0,.5.22.5.5s-.23.5-.5.5H1.5c-.28,0-.5-.23-.5-.5s.22-.5.5-.5h22ZM23,21v1H2v-1h21ZM19,12v-1h3v1h-3Z"/>
  <path class="cls-1" d="M12.5,3c-1.1,0-2,.9-2,2s.9,2,2,2,2-.9,2-2-.9-2-2-2ZM12.5,6c-.55,0-1-.45-1-1s.45-1,1-1,1,.45,1,1-.45,1-1,1Z"/>
</svg>