<?xml version="1.0" encoding="UTF-8"?>
<svg id="Capa_1" data-name="Capa 1" xmlns="http://www.w3.org/2000/svg" viewBox="0 0 25 25">
  <defs>
    <style>
      .cls-1 {
        font-size: 11.5px;
      }

      .cls-2 {
        font-size: 12px;
      }

      .cls-3 {
        font-family: Roboto-Medium, Roboto;
        font-weight: 500;
      }

      .cls-3, .cls-4 {
        fill: #33544a;
      }

      .cls-5 {
        letter-spacing: -.04em;
      }

      .cls-6 {
        letter-spacing: -.03em;
      }

      .cls-7 {
        letter-spacing: -.04em;
      }

      .cls-8 {
        letter-spacing: -.03em;
      }

      .cls-9 {
        letter-spacing: -.03em;
      }
    </style>
  </defs>
  <text class="cls-3" transform="translate(-9.51 34.76)"><tspan class="cls-2"><tspan x="0" y="0">Oficialía</tspan></tspan><tspan class="cls-1"><tspan class="cls-9" x="4.34" y="13">C</tspan><tspan class="cls-6" x="11.51" y="13">o</tspan><tspan class="cls-7" x="17.64" y="13">m</tspan><tspan class="cls-8" x="27.25" y="13">ú</tspan><tspan class="cls-5" x="33.27" y="13">n</tspan></tspan></text>
  <g>
    <g>
      <path class="cls-4" d="M22.65,4.68l-4.73,3.37-1.31-1.32,3.29-4.56s.64-.63,1.43-.63c.44,0,.85.2,1.24.6.55.56.72,1.13.53,1.74-.15.46-.46.79-.45.8ZM17.78,9.36l-.58.57-2.57-2.59.58-.57,2.57,2.59ZM23.31,1.41c-.53-.53-1.27-.91-1.99-.91-1.22,0-2.12.9-2.21,1l-3.24,4.49-.29-.29c-.2-.2-.52-.2-.72,0l-.94.93-.67-.67c-.94-.94-2.46-.96-3.41-.04l-.72.71-.36.36.71.72h0s-.95.95-.95.95c-.1.1-.15.22-.15.36,0,.13.05.26.15.36h0s6.63,6.65,6.63,6.65c.2.2.52.2.72,0l.93-.92h0s.71.72.71.72l.72-.71.34-.34c.95-.94.96-2.48.02-3.43l-.67-.68.94-.93c.2-.2.2-.52,0-.72l-.19-.2,4.66-3.33s.89-.87.9-2.05c0-.28-.01-1.12-.91-2.02ZM15.51,14.94l-5.92-5.93.59-.59,5.9,5.95-.57.57ZM17.52,14.37l-7.33-7.39.34-.33c.56-.55,1.45-.55,2.01,0l5.33,5.38c.55.55.54,1.45,0,2l-.34.34Z"/>
      <circle class="cls-4" cx="21.29" cy="3.41" r=".47"/>
    </g>
    <path class="cls-4" d="M6.12,20.66l-1.6-1.61c-.22-.22-.22-.58,0-.8s.58-.22.8,0l.8.8,2.49-2.54c.22-.22.58-.22.8,0,.22.22.23.57,0,.8l-3.29,3.35Z"/>
    <g>
      <path class="cls-4" d="M7.06,22.64c-2.44,0-4.42-1.98-4.42-4.42s1.98-4.42,4.42-4.42,4.42,1.98,4.42,4.42-1.98,4.42-4.42,4.42ZM7.06,14.74c-1.92,0-3.48,1.56-3.48,3.48s1.56,3.48,3.48,3.48,3.48-1.56,3.48-3.48-1.56-3.48-3.48-3.48Z"/>
      <path class="cls-4" d="M7.06,24.5c-3.46,0-6.27-2.82-6.27-6.27s2.82-6.27,6.27-6.27,6.27,2.82,6.27,6.27-2.81,6.27-6.27,6.27ZM7.06,13.08c-2.84,0-5.15,2.31-5.15,5.15s2.31,5.15,5.15,5.15,5.15-2.31,5.15-5.15-2.31-5.15-5.15-5.15Z"/>
    </g>
  </g>
</svg>