<?xml version="1.0" encoding="UTF-8"?>
<svg id="Capa_1" data-name="Capa 1" xmlns="http://www.w3.org/2000/svg" viewBox="0 0 25 25">
  <defs>
    <style>
      .cls-1 {
        fill: #33544a;
      }
    </style>
  </defs>
  <path class="cls-1" d="M23.76,10.53h-4.59c-.07,0-.13-.02-.19-.04l-5.11-2.49,1.83-2.61c.12-.16.17-.36.13-.56-.03-.2-.14-.38-.31-.49l-2.11-1.51c-.16-.11-.35-.16-.55-.13-.19.03-.36.14-.48.3l-1.36,1.92s-.06.05-.09.08c-.03.04-.04.09-.06.13l-1.02,1.43c-.76-.48-1.56-.33-1.71-.29-2.23.8-3.5,1.42-3.76,1.84-.29.46-4.14,6.62-4.14,6.62l-.07.17c-.15.59-.15,1.75.74,2.39.33.23.71.35,1.12.37l-.27.35c-.13.17-.22.37-.26.59l-.5,2.94c-.04.27.06.53.28.69.12.09.27.14.42.14.11,0,.22-.03.32-.08l2.54-1.28c.36.69,1.08,1.24,1.8,1.24h.58c.46,0,.88-.18,1.2-.45.33.28.74.45,1.2.45h.58c1.02,0,1.86-.83,1.86-1.86v-.67c.96.44,2.46.9,4.49.9,1.78,0,3.45-.64,4.42-1.09v1.67c0,.25.13.48.34.61.12.07.25.11.38.11.11,0,.22-.02.32-.07l2.41-1.18c.39-.19.63-.58.63-1.02v-8.1c0-.56-.46-1.02-1.02-1.02ZM6.34,13.6l5.23-7.38,1.37,1.01-4.47,6.37h-2.14ZM13.09,4.08l1.38.98-.83,1.19-1.37-1.01.82-1.16ZM1.59,16.32c-.36-.26-.32-.83-.28-1.04.49-.78,3.81-6.09,4.04-6.48.25-.24,1.85-.92,3.11-1.38.02,0,.35-.05.69.13l-4.46,6.29c-.66.33-1.36,1.03-1.47,2.26-.41.24-1.12.56-1.63.21ZM2.35,20.8l.36-2.05.72-.94c.22.55.65,1,1.37,1.2l-.66.89-1.79.9ZM6.95,20.93h-.58c-.27,0-.72-.5-.72-.81,0-.07-.02-.14-.04-.21l.58-.79h1.31v1.16s-.02.07-.02.12c0,.29-.24.53-.53.53ZM9.94,20.93h-.58c-.29,0-.53-.24-.53-.53v-1.28h1.64v1.28c0,.29-.24.53-.53.53ZM16.29,19.43c-3.29,0-4.99-1.36-5.01-1.37l-.17-.14h-5.47c-.64,0-1.26-.12-1.26-1.5s1.09-1.62,1.12-1.64h4.94c2,0,3.88-1.66,3.95-1.73.25-.22.27-.6.05-.85-.22-.25-.6-.27-.85-.05-.02.01-1.62,1.43-3.16,1.43h-.51s3.22-4.6,3.22-4.6l5.29,2.57c.22.11.47.17.72.17h1.54v6.47c-.61.32-2.48,1.23-4.42,1.23ZM21.91,20.43v-8.7h1.67l.03,7.86-1.71.84Z"/>
</svg>