<svg xmlns="http://www.w3.org/2000/svg" style="display:none">
  <symbol id="svg-ex-crear" viewBox="0 0 14 14">
<path d="M12.27,3.02s0,0,0,0L9.34.1c-.06-.06-.13-.09-.21-.09H2.25C1.91.01,1.64.28,1.64.62v12.76c0,.34.28.61.61.61h9.49c.34,0,.61-.27.61-.61V3.24c0-.08-.03-.16-.09-.21ZM9.43,1.03l1.9,1.9h-1.9v-1.9ZM2.26,13.39s-.01,0-.01-.01V.61h6.59v2.63c0,.17.13.3.3.3h2.63v9.85H2.26Z"/>
  <path d="M8.84,7.2h-1.34v-1.34c0-.28-.22-.5-.5-.5s-.5.22-.5.5v1.34h-1.34c-.28,0-.5.22-.5.5s.22.5.5.5h1.34v1.34c0,.28.22.5.5.5s.5-.22.5-.5v-1.34h1.34c.28,0,.5-.22.5-.5s-.22-.5-.5-.5Z"/>
  </symbol>

  <!-- más symbols -->
</svg>