<?xml version="1.0" encoding="UTF-8"?>
<svg id="Capa_1" data-name="Capa 1" xmlns="http://www.w3.org/2000/svg" viewBox="0 0 25 25">
  <defs>
    <style>
      .cls-1 {
        fill: #33544a;
      }
    </style>
  </defs>
  <path class="cls-1" d="M24.85,4.76c-.03-.07-.07-.14-.13-.19L20.66.51c-.05-.06-.12-.1-.19-.13-.07-.03-.15-.05-.23-.05h-9.56c-.57,0-1.03.46-1.03,1.03v.56l-4.04.63c-.27.04-.51.19-.67.41s-.23.49-.19.76l.14.92L.77,6.06c-.53.2-.8.79-.6,1.32l6.17,16.61c.1.26.29.47.54.58.14.06.28.09.43.09.12,0,.25-.02.37-.07l10.79-4.16,1.96-.33h3.44c.57,0,1.03-.46,1.03-1.03V4.99c0-.08-.02-.16-.05-.23ZM20.83,2.38l2.02,2.02h-2.02v-2.02ZM9.64,3.13v15.95c0,.57.46,1.04,1.04,1.04h2.5l-4.55.76L5.96,3.7l3.68-.57ZM7.41,23.42L1.35,7.13l3.72-1.3,2.39,15.39c.04.27.19.52.41.68.18.13.39.2.61.2.05,0,.11,0,.17-.01l3.91-.66-5.15,1.99ZM10.84,18.91V1.53h8.79v3.46c0,.33.27.6.6.6h3.47v13.32h-12.85Z"/>
  <path class="cls-1" d="M21.88,15.78h-9.21c-.33,0-.6.27-.6.6s.27.6.6.6h9.21c.33,0,.6-.27.6-.6s-.27-.6-.6-.6Z"/>
  <path class="cls-1" d="M21.88,12.93h-9.21c-.33,0-.6.27-.6.6s.27.6.6.6h9.21c.33,0,.6-.27.6-.6s-.27-.6-.6-.6Z"/>
  <path class="cls-1" d="M21.88,10.08h-9.21c-.33,0-.6.27-.6.6s.27.6.6.6h9.21c.33,0,.6-.27.6-.6s-.27-.6-.6-.6Z"/>
  <path class="cls-1" d="M21.88,7.23h-9.21c-.33,0-.6.27-.6.6s.27.6.6.6h9.21c.33,0,.6-.27.6-.6s-.27-.6-.6-.6Z"/>
</svg>