<?xml version="1.0" encoding="utf-8"?><svg fill="none" viewBox="0 0 600 600" xmlns="http://www.w3.org/2000/svg"><defs><clipPath id="cp-600-600"><rect height="600" width="600" y="0" x="0" /></clipPath><g id="comp_0"><g transform="matrix(1,0,0,1,285.5,7.5)" id="Layer 11 Outlines"><g id="Group 1"><path stroke-linejoin="miter" stroke-linecap="butt" stroke-width="12" stroke-opacity="1" stroke="#00c985" d="M6,65L6,6" /></g></g><g transform="matrix(1,0,0,1,286,506)" id="Layer 10 Outlines"><g id="Group 1"><path stroke-linejoin="miter" stroke-linecap="butt" stroke-width="12" stroke-opacity="1" stroke="#00c985" d="M6,65L6,6" /></g></g><g transform="matrix(1,0,0,1,505.5,286)" id="Layer 9 Outlines"><g id="Group 1"><path stroke-linejoin="miter" stroke-linecap="butt" stroke-width="12" stroke-opacity="1" stroke="#00c985" d="M6,6L65,6" /></g></g><g transform="matrix(1,0,0,1,7,286.5)" id="Layer 8 Outlines"><g id="Group 1"><path stroke-linejoin="miter" stroke-linecap="butt" stroke-width="12" stroke-opacity="1" stroke="#00c985" d="M6,6L65,6" /></g></g><g transform="matrix(1,0,0,1,441.314,441.46)" id="Layer 7 Outlines"><g id="Group 1" transform="matrix(1,0,0,1,26.86,26.86)"><path stroke-linejoin="miter" stroke-linecap="butt" stroke-width="12" stroke-opacity="1" stroke="#00c985" d="M-20.86,-20.86L20.86,20.86" /></g></g><g transform="matrix(1,0,0,1,88.468,89.321)" id="Layer 6 Outlines"><g id="Group 1" transform="matrix(1,0,0,1,26.859,26.86)"><path stroke-linejoin="miter" stroke-linecap="butt" stroke-width="12" stroke-opacity="1" stroke="#00c985" d="M-20.859,-20.86L20.859,20.86" /></g></g><g transform="matrix(1,0,0,1,440.96,88.968)" id="Layer 5 Outlines"><g id="Group 1" transform="matrix(1,0,0,1,26.86,26.859)"><path stroke-linejoin="miter" stroke-linecap="butt" stroke-width="12" stroke-opacity="1" stroke="#00c985" d="M-20.86,20.859L20.86,-20.859" /></g></g><g transform="matrix(1,0,0,1,88.821,441.813)" id="Layer 4 Outlines"><g id="Group 1" transform="matrix(1,0,0,1,26.859,26.86)"><path stroke-linejoin="miter" stroke-linecap="butt" stroke-width="12" stroke-opacity="1" stroke="#00c985" d="M-20.859,20.86L20.859,-20.86" /></g></g></g></defs><g visibility="hidden" id="Layer 1 Outlines"><animate repeatCount="indefinite" begin="1.667s" calcMode="discrete" fill="freeze" dur="10s" values="visible; visible" keyTimes="0; 1" attributeName="visibility" /><g transform="translate(299.988,299.91)"><g transform="scale(0,0)"><animateTransform repeatCount="indefinite" type="scale" attributeName="transform" dur="0.567s" begin="1.667s" calcMode="spline" values="0 0; 1.16 1.16; 1 1" keyTimes="0; 0.647; 1" keySplines="0.333 0 0.046 1; 0.333 0.032 0.019 1" fill="freeze" /><g transform="translate(-190.878,-189.014)"><g id="Group 1" transform="matrix(1,0,0,1,190.878,189.015)"><path fill="#00c985" fill-opacity="1" d="M49.728,-183.893L75.948,-160.861C77.997,-159.061,80.469,-157.809,83.134,-157.221L117.251,-149.704C122.543,-148.538,126.897,-144.801,128.834,-139.758L141.329,-107.249C142.305,-104.71,143.913,-102.457,146,-100.704L172.734,-78.264C176.88,-74.783,178.995,-69.461,178.36,-64.104L174.265,-29.568C173.945,-26.87,174.319,-24.134,175.352,-21.617L188.578,10.606C190.628,15.604,190.02,21.29,186.957,25.734L167.211,54.389C165.669,56.628,164.724,59.22,164.465,61.924L161.152,96.546C160.638,101.918,157.446,106.665,152.657,109.178L121.785,125.385C119.373,126.651,117.325,128.507,115.833,130.78L96.742,159.871C93.781,164.383,88.735,167.105,83.317,167.112L48.39,167.159C45.662,167.162,42.981,167.856,40.598,169.176L10.101,186.072C5.371,188.692,-0.371,188.764,-5.177,186.263L-36.157,170.138C-38.577,168.878,-41.278,168.253,-44.005,168.317L-78.921,169.146C-84.337,169.275,-89.46,166.681,-92.553,162.244L-112.489,133.642C-114.046,131.409,-116.148,129.604,-118.596,128.399L-149.931,112.972C-154.792,110.579,-158.123,105.914,-158.793,100.558L-163.119,66.033C-163.457,63.336,-164.477,60.765,-166.084,58.567L-186.661,30.418C-189.853,26.051,-190.628,20.383,-188.724,15.336L-176.447,-17.206C-175.488,-19.748,-175.194,-22.493,-175.593,-25.182L-180.697,-59.604C-181.489,-64.943,-179.531,-70.315,-175.488,-73.898L-149.422,-97.001C-147.386,-98.806,-145.844,-101.096,-144.943,-103.66L-133.405,-136.47C-131.616,-141.56,-127.374,-145.405,-122.117,-146.703L-88.233,-155.074C-85.586,-155.727,-83.151,-157.041,-81.156,-158.891L-55.62,-182.572C-51.659,-186.246,-46.104,-187.684,-40.839,-186.4L-6.899,-178.12C-4.248,-177.474,-1.476,-177.507,1.156,-178.22L34.84,-187.349C40.066,-188.765,45.661,-187.466,49.728,-183.893Z" /></g></g></g></g></g><g transform="matrix(1,0,0,1,162.622,190.691)" visibility="hidden" id="Layer 2 Outlines"><animate repeatCount="indefinite" begin="1.8s" calcMode="discrete" fill="freeze" dur="10s" values="visible; visible" keyTimes="0; 1" attributeName="visibility" /><g id="Group 1" transform="matrix(1,0,0,1,137.378,109.308)"><path stroke-linejoin="miter" stroke-linecap="butt" stroke-width="21" stroke-opacity="1" stroke="#ffffff" d="M-84.878,0.669L-28.738,56.809L84.878,-56.809" /></g></g><g opacity="0" visibility="hidden" id="Pre-comp 1"><animate repeatCount="indefinite" begin="1.8s" calcMode="discrete" fill="freeze" dur="10s" values="visible; visible" keyTimes="0; 1" attributeName="visibility" /><animate repeatCount="indefinite" attributeName="opacity" dur="0.26666666666666666s" begin="1.8s" calcMode="spline" values="0; 1; 1" keyTimes="0; 0.25; 1" keySplines="0 0 1 1; 0 0 1 1" fill="freeze" /><g transform="translate(300,300)"><g transform="scale(0.86,0.86)"><animateTransform repeatCount="indefinite" type="scale" attributeName="transform" dur="0.267s" begin="1.8s" calcMode="spline" values="0.86 0.86; 0.94 0.94" keyTimes="0; 1" keySplines="0 0 1 1" fill="freeze" /><g transform="translate(-300,-300)"><use clip-path="url(#cp-600-600)" height="600" width="600" y="0" x="0" xlink:href="#comp_0" href="#comp_0" /></g></g></g></g><g transform="matrix(1,0,0,1,300,300)" id="Shape Layer 1"><animate repeatCount="indefinite" begin="0.833s" calcMode="discrete" fill="freeze" dur="0s" values="visible; hidden" keyTimes="0; 1" attributeName="visibility" /><g id="Ellipse 1" transform="matrix(1,0,0,1,1.93,-10.07)"><ellipse ry="183.9295" rx="183.9295" cy="0" cx="0" stroke-linejoin="miter" stroke-linecap="butt" stroke-width="20" stroke-opacity="1" stroke="#e4e4e4" /></g></g><g transform="matrix(1,0,0,1,300,300)" id="Shape Layer 2"><animate repeatCount="indefinite" begin="0.833s" calcMode="discrete" fill="freeze" dur="0.833s" values="visible; hidden" keyTimes="0; 1" attributeName="visibility" /><g id="Ellipse 1" transform="matrix(1,0,0,1,1.93,-10.07)"><ellipse ry="183.9295" rx="183.9295" cy="0" cx="0" stroke-linejoin="miter" stroke-linecap="butt" stroke-width="20" stroke-opacity="1" stroke="#e4e4e4" /></g></g></svg>